
		<svg xmlns="http://www.w3.org/2000/svg" xmlns:xlink="http://www.w3.org/1999/xlink" version="1.1" width="3300" height="3060">
			
			<g transform="scale(15) translate(10, 10)">
				<defs id="SvgjsDefs19190"></defs><g id="SvgjsG19191" featureKey="root" fill="#debd97"></g><g id="SvgjsG19192" featureKey="symbol1" fill="#2b4162" transform="matrix(1.2584496639816887,0,0,1.2584496639816887,37.07751920121781,5.0775192012178145)"><g id="SvgjsG19193" transform="matrix(1,0,0,1,0,0)"><path xmlns="http://www.w3.org/2000/svg" d="M24.969,77.813c-1.536,0-2.781-1.245-2.781-2.781V50c0-1.536,1.245-2.781,2.781-2.781S27.75,48.464,27.75,50v25.031  C27.75,76.567,26.505,77.813,24.969,77.813z"></path><path xmlns="http://www.w3.org/2000/svg" d="M50,77.813c-1.536,0-2.781-1.245-2.781-2.781V24.969c0-1.536,1.245-2.781,2.781-2.781s2.781,1.245,2.781,2.781v50.063  C52.781,76.567,51.536,77.813,50,77.813z"></path><path xmlns="http://www.w3.org/2000/svg" d="M75.031,77.813c-1.536,0-2.781-1.245-2.781-2.781V37.484c0-1.536,1.245-2.781,2.781-2.781s2.781,1.245,2.781,2.781v37.547  C77.813,76.567,76.567,77.813,75.031,77.813z"></path></g></g><g id="SvgjsG19194" featureKey="text1" fill="#2b4162" transform="matrix(3.311236319104167,0,0,3.311236319104167,-5.9602252164954495,81.92070805623726)"><path d="M5.12 24.12 q-0.34 0 -0.79 -0.03 t-0.92 -0.08 t-0.89 -0.12 t-0.72 -0.15 l0 -13.34 q0.36 -0.1 0.8 -0.17 t0.91 -0.12 t0.92 -0.07 t0.83 -0.02 q1.12 0 2.13 0.18 t1.77 0.6 t1.21 1.11 t0.45 1.71 q0 1.12 -0.57 1.91 t-1.53 1.09 q0.6 0.14 1.1 0.4 t0.88 0.67 t0.59 1 t0.21 1.41 q0 1.96 -1.56 2.99 t-4.82 1.03 z M3.16 17.36 l0 5.46 q0.3 0.04 0.9 0.09 t1.22 0.05 q0.92 0 1.79 -0.12 t1.53 -0.44 t1.06 -0.88 t0.4 -1.44 q0 -0.8 -0.28 -1.33 t-0.8 -0.84 t-1.27 -0.43 t-1.67 -0.12 l-2.88 0 z M3.16 16.2 l2.64 0 q0.74 0 1.4 -0.11 t1.15 -0.4 t0.77 -0.78 t0.28 -1.25 q0 -0.68 -0.3 -1.15 t-0.85 -0.77 t-1.31 -0.43 t-1.68 -0.13 q-0.74 0 -1.25 0.04 t-0.85 0.1 l0 4.88 z M13.7 18.82 q0 -1.36 0.39 -2.37 t1.02 -1.69 t1.44 -1.01 t1.67 -0.33 q1.9 0 3.03 1.24 t1.13 3.82 q0 0.16 -0.01 0.32 t-0.03 0.3 l-7.26 0 q0.06 1.9 0.94 2.92 t2.8 1.02 q1.06 0 1.68 -0.2 t0.9 -0.34 l0.24 1.12 q-0.28 0.16 -1.05 0.38 t-1.81 0.22 q-1.36 0 -2.32 -0.4 t-1.58 -1.12 t-0.9 -1.71 t-0.28 -2.17 z M21.04 18 q-0.04 -1.62 -0.76 -2.52 t-2.04 -0.9 q-0.7 0 -1.25 0.28 t-0.96 0.75 t-0.64 1.09 t-0.27 1.3 l5.92 0 z M24.660000000000004 18.82 q0 -1.36 0.39 -2.37 t1.02 -1.69 t1.44 -1.01 t1.67 -0.33 q1.9 0 3.03 1.24 t1.13 3.82 q0 0.16 -0.01 0.32 t-0.03 0.3 l-7.26 0 q0.06 1.9 0.94 2.92 t2.8 1.02 q1.06 0 1.68 -0.2 t0.9 -0.34 l0.24 1.12 q-0.28 0.16 -1.05 0.38 t-1.81 0.22 q-1.36 0 -2.32 -0.4 t-1.58 -1.12 t-0.9 -1.71 t-0.28 -2.17 z M32 18 q-0.04 -1.62 -0.76 -2.52 t-2.04 -0.9 q-0.7 0 -1.25 0.28 t-0.96 0.75 t-0.64 1.09 t-0.27 1.3 l5.92 0 z M42.980000000000004 22.8 q-0.12 0.1 -0.36 0.23 t-0.59 0.27 t-0.8 0.23 t-1.01 0.09 q-0.9 0 -1.74 -0.28 t-1.47 -0.88 t-1.01 -1.55 t-0.38 -2.31 q0 -1.1 0.34 -2.04 t0.97 -1.63 t1.54 -1.08 t2.05 -0.39 q1.44 0 2.31 0.19 t1.43 0.37 l0 9.44 q0 2.32 -1.2 3.31 t-3.62 0.99 q-1 0 -1.81 -0.15 t-1.39 -0.35 l0.26 -1.18 q0.48 0.22 1.31 0.38 t1.67 0.16 q1.84 0 2.67 -0.71 t0.83 -2.43 l0 -0.68 z M42.96 14.92 q-0.34 -0.1 -0.88 -0.19 t-1.54 -0.09 q-0.84 0 -1.49 0.29 t-1.11 0.82 t-0.7 1.26 t-0.24 1.61 q0 1.02 0.28 1.75 t0.73 1.19 t1.03 0.67 t1.18 0.21 q0.88 0 1.61 -0.26 t1.13 -0.6 l0 -6.66 z M56.52 18.84 q0 1.22 -0.35 2.22 t-0.98 1.7 t-1.49 1.09 t-1.9 0.39 t-1.9 -0.39 t-1.49 -1.09 t-0.98 -1.7 t-0.35 -2.22 t0.35 -2.22 t0.98 -1.71 t1.49 -1.1 t1.9 -0.39 t1.9 0.39 t1.49 1.1 t0.98 1.71 t0.35 2.22 z M55.14 18.84 q0 -1.94 -0.9 -3.09 t-2.44 -1.15 t-2.44 1.15 t-0.9 3.09 t0.9 3.08 t2.44 1.14 t2.44 -1.14 t0.9 -3.08 z M61.96000000000001 24.18 q-0.66 -0.02 -1.15 -0.17 t-0.82 -0.46 t-0.5 -0.8 t-0.17 -1.23 l0 -12.8 l1.3 -0.24 l0 13 q0 0.48 0.09 0.77 t0.27 0.46 t0.47 0.25 t0.69 0.14 z"></path></g>
			</g>
		</svg>
	